<svg width="36" height="36" viewBox="0 0 36 36" fill="none" xmlns="http://www.w3.org/2000/svg">
<path fill-rule="evenodd" clip-rule="evenodd" d="M19.0584 8.08642C18.9349 7.54336 18.4521 7.15796 17.8951 7.15796C17.3381 7.15796 16.8553 7.54336 16.7318 8.08642L16.0717 10.9892C15.7664 12.3319 14.718 13.3803 13.3753 13.6856L10.4725 14.3457C9.92945 14.4692 9.54405 14.9521 9.54405 15.509C9.54405 16.066 9.92945 16.5488 10.4725 16.6723L13.3753 17.3324C14.718 17.6377 15.7664 18.6861 16.0717 20.0288L16.7318 22.9316C16.8553 23.4747 17.3381 23.8601 17.8951 23.8601C18.4521 23.8601 18.9349 23.4747 19.0584 22.9316L19.7185 20.0288C20.0238 18.6861 21.0722 17.6377 22.4149 17.3324L25.3177 16.6723C25.8608 16.5488 26.2462 16.066 26.2462 15.509C26.2462 14.9521 25.8608 14.4692 25.3177 14.3457L22.4149 13.6856C21.0722 13.3803 20.0238 12.3319 19.7185 10.9892L19.0584 8.08642ZM15.2934 15.509C16.4123 14.938 17.3241 14.0262 17.8951 12.9073C18.4661 14.0262 19.3779 14.938 20.4968 15.509C19.3779 16.08 18.4661 16.9918 17.8951 18.1107C17.3241 16.9918 16.4123 16.08 15.2934 15.509Z" fill="url(#paint0_linear_35_136)"/>
<path fill-rule="evenodd" clip-rule="evenodd" d="M7.15805 0C3.20476 0 0 3.20476 0 7.15805V23.8602C0 27.8134 3.20476 31.0182 7.15805 31.0182H13.1783L16.9973 35.3828C17.2238 35.6417 17.5511 35.7902 17.8951 35.7902C18.2391 35.7902 18.5664 35.6417 18.793 35.3828L22.612 31.0182H28.6322C32.5855 31.0182 35.7902 27.8134 35.7902 23.8602V7.15805C35.7902 3.20476 32.5855 0 28.6322 0H7.15805ZM2.38602 7.15805C2.38602 4.52253 4.52253 2.38602 7.15805 2.38602H28.6322C31.2677 2.38602 33.4042 4.52253 33.4042 7.15805V23.8602C33.4042 26.4957 31.2677 28.6322 28.6322 28.6322H22.0706C21.7266 28.6322 21.3993 28.7807 21.1728 29.0396L17.8951 32.7855L14.6174 29.0396C14.3909 28.7807 14.0636 28.6322 13.7196 28.6322H7.15805C4.52253 28.6322 2.38602 26.4957 2.38602 23.8602V7.15805Z" fill="url(#paint1_linear_35_136)"/>
<defs>
<linearGradient id="paint0_linear_35_136" x1="4.47377" y1="-8.67875e-05" x2="27.4392" y2="29.8251" gradientUnits="userSpaceOnUse">
<stop stop-color="#1BA2D8"/>
<stop offset="0.901177" stop-color="#542CFA"/>
</linearGradient>
<linearGradient id="paint1_linear_35_136" x1="4.47378" y1="-3.42211e-07" x2="27.4392" y2="29.8252" gradientUnits="userSpaceOnUse">
<stop stop-color="#1BA2D8"/>
<stop offset="0.901177" stop-color="#542CFA"/>
</linearGradient>
</defs>
</svg>
